<svg xmlns="http://www.w3.org/2000/svg" viewBox="0 0 64 56" id="truck"><path d="m3 28.3 13.1-7.5 47.9 24-14 7z" opacity=".3"></path><path fill="#2D3134" d="M5.3 25v3.8l2.5-1.3v-3.7z"></path><path d="M5.3 25v3.8l2.5-1.3v-3.7z" opacity=".39"></path><path fill="#2D3134" d="M46.2 42.9c-.7-.4-1.4-.4-1.9-.2l-1.4.7c-.6.2-.9.8-.9 1.6 0 1.5 1.3 3.4 2.8 4.2.8.4 1.5.4 2 .2 0 0 1.4-.7 1.5-.8.5-.3.7-.8.7-1.5 0-1.6-1.3-3.5-2.8-4.2z"></path><path d="M46.8 49.3c.2-.1 1.4-.7 1.5-.7.5-.3.7-.8.7-1.5 0-.6-.2-1.3-.5-1.9l-1.4.7c.3.6.5 1.3.5 1.9 0 .7-.3 1.3-.8 1.5z" opacity=".39"></path><path fill="#999" d="M46.9 47.4c0 1.2-.9 1.6-2.1 1s-2.1-2-2.1-3.2.9-1.6 2.1-1 2.1 2 2.1 3.2z"></path><path d="M45 48.4c-1.2-.6-2.1-2-2.1-3.2 0-.6.2-1 .6-1.2-.5.1-.8.6-.8 1.2 0 1.2.9 2.6 2.1 3.2.6.3 1.1.3 1.5.1-.4.2-.8.1-1.3-.1z" opacity=".15"></path><path fill="#2D3134" d="M45.8 46.7c0 .5-.4.7-.9.4-.5-.2-.9-.8-.9-1.3s.4-.7.9-.4c.6.2.9.8.9 1.3z"></path><path d="M45.8 46.7c0 .5-.4.7-.9.4-.5-.2-.9-.8-.9-1.3s.4-.7.9-.4c.6.2.9.8.9 1.3z" opacity=".39"></path><path fill="#2D3134" d="M45.7 46.8c0 .5-.4.7-.9.4-.5-.2-.9-.8-.9-1.3s.4-.7.9-.4c.5.2.9.8.9 1.3z"></path><path d="M47.6 47.8c0 1.5-1.3 2.2-2.8 1.4S42 46.5 42 45s1.3-2.2 2.8-1.4 2.8 2.6 2.8 4.2z" opacity=".06"></path><path fill="#2D3134" d="M9.7 24.6c-.7-.4-1.4-.4-1.9-.2l-1.4.7c-.5.2-.9.8-.9 1.6 0 1.5 1.3 3.4 2.8 4.2.8.4 1.5.4 2 .2 0 0 1.4-.7 1.5-.8.5-.3.7-.8.7-1.5 0-1.5-1.3-3.4-2.8-4.2z"></path><path d="M10.3 31.1c.2-.1 1.4-.7 1.5-.7.5-.3.7-.8.7-1.5 0-.6-.2-1.3-.5-1.9l-1.4.7c.3.6.5 1.3.5 1.9 0 .7-.3 1.2-.8 1.5z" opacity=".39"></path><path fill="#999" d="M10.4 29.2c0 1.2-.9 1.6-2.1 1s-2.1-2-2.1-3.2.9-1.6 2.1-1 2.1 2 2.1 3.2z"></path><path d="M8.5 30.1c-1.2-.6-2.1-2-2.1-3.2 0-.6.2-1 .6-1.2-.5.1-.8.6-.8 1.2 0 1.2.9 2.6 2.1 3.2.6.3 1.1.3 1.5.1-.4.2-.8.2-1.3-.1z" opacity=".15"></path><path fill="#2D3134" d="M9.4 28.5c0 .5-.4.7-.9.4-.5-.2-.9-.8-.9-1.3s.4-.7.9-.4c.5.2.9.8.9 1.3z"></path><path d="M9.4 28.5c0 .5-.4.7-.9.4-.5-.2-.9-.8-.9-1.3s.4-.7.9-.4c.5.2.9.8.9 1.3z" opacity=".39"></path><path fill="#2D3134" d="M9.2 28.5c0 .5-.4.7-.9.4s-.9-.8-.9-1.3.4-.7.9-.4.9.9.9 1.3z"></path><path d="M11.1 29.5c0 1.5-1.3 2.2-2.8 1.4-1.5-.8-2.8-2.7-2.8-4.2s1.3-2.2 2.8-1.4c1.5.8 2.8 2.7 2.8 4.2z" opacity=".06"></path><path fill="#06547A" d="M17 1 3 8v15.3l38 19L55 35V20z"></path><path fill="#2D3134" d="M3 22v2l38 19v-2zM55 34v2l-14 7v-2z"></path><path d="M3 8v16l38 19V27z" opacity=".06"></path><path d="M55 20v16l-14 7V27z" opacity=".39"></path><path fill="#E5E5E5" d="m62 28-6-3-14 7v11.3c0 .3.4.5.7.3 1.2-1 3.3-.3 4.8 1.5.9 1.1 1.3 2.3 1.3 3.3l1.2.6 14-7v-8l-2-6z"></path><path fill="#39C" d="m50.4 40.5-1.7-5c-.1-.2 0-.3.2-.4l12.5-6.2c.2-.1.4 0 .5.2l1.6 4.7c.1.2 0 .3-.2.4l-12.4 6.5c-.2.1-.5 0-.5-.2z"></path><path d="m52.7 33.2 8.6-4.3c.2-.1.4 0 .5.2l1.5 4.4-10.6-.3z" opacity=".15"></path><path fill="#2D3134" d="m63.4 33.8-.1-.3c0 .2 0 .3-.2.4l-12.4 6.5c-.2.1-.4 0-.5-.2l.1.3c.1.2.3.3.5.2l12.4-6.5c.2-.1.3-.2.2-.4z"></path><path fill="#FFF" d="m53.5 40 7-3.5v5.8l-7 3.5z"></path><path fill="#2D3134" d="m54 45 6-3v-4.7l-6 3z"></path><path fill="#2D3134" d="M64 42v-2l-14 7v2zM48 48l2 1v-2l-2-1z"></path><path fill="#FFF" d="M54 45v1l6-3v-1z"></path><path fill="#39C" d="m47.5 35.3-3.8-1.9c-.1-.1-.3 0-.3.2v3c0 .2.1.4.3.4l1.3.7c.1.1.2.1.3.2l1.3 1.6h.1l2.2 1.1c.1.1.3-.1.2-.2l-1.7-5c.2 0 .2-.1.1-.1z"></path><path d="m49.3 40.3-2-1h-.1l-1.3-1.6c-.1-.1-.2-.2-.3-.2l-1.3-.7c-.2-.1-.3-.2-.3-.4v-2.9l-.2-.1c-.1-.1-.3 0-.3.2v3c0 .2.1.4.3.4l1.3.7c.1.1.2.1.3.2l1.3 1.6h.1l2.2 1.1c.2.1.3 0 .3-.3z" opacity=".15"></path><path fill="#FC0" d="M50 45v2l-.5-.2v-2z"></path><path fill="#E5E5E5" d="M54 41v.3l6-3V38zM54 42v.3l6-3V39zM54 43v.3l6-3V40zM54 44v.3l6-3V41z"></path><path fill="#2D3134" d="M43.5 38.3v.5l1 .5v-.5z" opacity=".5"></path><path fill="#FFF" d="m44.5 39.5-1-.5v-.2l1 .5z" opacity=".5"></path><path fill="#2D3134" d="M57.5 33.9c-.1-.1-.2-.1-.3 0l-3.8 4.3c-.1.1-.1.2 0 .3s.2.1.3 0l1-1.2v1h.3V37l2.5-2.9c.1 0 .1-.2 0-.2zM61.1 31.9c-.1-.1-.2-.1-.3 0L57 36.2c-.1.1-.1.2 0 .3.1.1.2.1.3 0l.9-1v1.1h.3v-1.4l2.6-3c.1-.1.1-.2 0-.3z"></path><path fill="#FFF" d="m62 41 2-1v-2l-1 .5c-.6.3-1 .9-1 1.6v.9z"></path><ellipse cx="62.7" cy="39.5" fill="#2D3134" opacity=".3" rx=".8" ry=".5" transform="rotate(129.144 62.714 39.544)"></ellipse><ellipse cx="63.2" cy="39.5" fill="#2D3134" opacity=".3" rx=".8" ry=".5" transform="rotate(129.144 63.215 39.544)"></ellipse><path fill="#FFF" d="m62 41 2-1v-2z" opacity=".3"></path><path fill="#FFF" d="m50 47 2-1v-.9c0-.5-.5-.8-1-.6l-1 .5v2z"></path><ellipse cx="51.2" cy="45.5" fill="#2D3134" opacity=".3" rx=".8" ry=".5" transform="rotate(129.144 51.215 45.544)"></ellipse><ellipse cx="50.7" cy="45.5" fill="#2D3134" opacity=".3" rx=".8" ry=".5" transform="rotate(129.144 50.715 45.544)"></ellipse><path fill="#FFF" d="m50 47 2-1-2-1z" opacity=".3"></path><path d="m48 35-6-3v11.3c0 .3.4.5.7.3 1.2-1 3.3-.3 4.8 1.5.3.3.5.6.6 1L48 46v2l2 1v-8l-2-6z" opacity=".06"></path><path d="m62 28-14 7 2 6v8l14-7v-8z" opacity=".39"></path></svg>